<?xml version="1.0" encoding="utf-8"?>
<!-- Generator: Adobe Illustrator 23.0.4, SVG Export Plug-In . SVG Version: 6.00 Build 0)  -->
<svg version="1.1" id="Layer_1" xmlns="http://www.w3.org/2000/svg" xmlns:xlink="http://www.w3.org/1999/xlink" x="0px" y="0px"
	 viewBox="0 0 93.9 92.8" style="enable-background:new 0 0 93.9 92.8;" xml:space="preserve">
<style type="text/css">
	.st0{fill:#282828;}
</style>
<g>
	<path class="st0" d="M1,48c1.1,23.7,20.5,43,44.2,43.9c26.2,1,47.8-20,47.8-46c0-16-8.2-30.2-20.7-38.4c-1.2,0.4-1.8,0.6-3,1
		l-5.3,16c0.2,0.8,0.3,1.3,0.5,2.1c5.2,4.8,8.5,11.7,8.5,19.3c0,14.9-12.5,26.9-27.7,25.9C32.3,71,21.7,60.4,21,47.3
		c-0.4-7.3,2.2-14,6.7-18.9l11.5,15.2L51.7,0.9H2l12.5,12.5C5.7,22.2,0.4,34.5,1,48z"/>
</g>
</svg>
